#N canvas 453 116 1440 689 12;
#X obj 696 86 readsf~;
#X obj 697 151 delwrite~ delayname1 1000;
#X obj 696 220 *~ 1;
#X obj 696 262 dac~;
#X obj 696 120 *~ 0.75;
#X obj 1006 145 hsl 128 15 0 180 0 0 empty empty empty -2 -8 0 10 #00ff04
#000000 #000000 0 1;
#X floatatom 1003 173 5 0 0 0 - - - 0;
#X text 719 16 <-- Delay;
#X obj 695 184 delread~ delayname1 4000;
#X obj 1003 83 osc/unpackOSC;
#X obj 1003 52 mrpeach/net/udpreceive 255.255.255.255 9999;
#X msg 696 53 open amostra09-synth.wav \, 1;
#X obj 1003 112 osc/routeOSC /gyy;
#X msg 995 355 stop;
#X obj 995 243 osc/unpackOSC;
#X floatatom 995 328 5 0 127 0 - - - 0;
#X obj 995 288 osc/routeOSC /value;
#X obj 996 215 mrpeach/net/udpreceive 255.255.255.255 9999;
#X obj 696 19 bng 15 250 50 0 empty empty empty 17 7 0 10 #fcfcfc #000000
#000000;
#X obj 31 202 readsf~;
#X obj 32 235 *~ 1;
#X obj 33 442 dac~;
#X obj 240 288 rev2~ 100 90 3000 20;
#X floatatom 55 322 5 0 0 0 - - - 0;
#X floatatom 308 254 5 0 0 0 - - - 0;
#X obj 311 222 hsl 128 15 0 127 0 0 empty empty empty -2 -8 0 10 #ff0400
#000000 #000000 0 1;
#X obj 32 281 *~ 1;
#X obj 32 362 *~ 1;
#X obj 33 398 *~ 1;
#X obj 308 116 osc/unpackOSC;
#X floatatom 308 185 5 -180 180 0 - - - 0;
#X obj 308 82 mrpeach/net/udpreceive 255.255.255.255 9999;
#X obj 32 54 osc/unpackOSC;
#X floatatom 32 113 5 0 127 0 - - - 0;
#X obj 32 81 osc/routeOSC /value;
#X obj 33 26 mrpeach/net/udpreceive 255.255.255.255 9999;
#X msg 31 171 open amostra10-ponpop.wav \, 1;
#X msg 31 141 stop;
#X obj 308 151 osc/routeOSC /gyx;
#X obj 349 444 readsf~;
#X obj 348 488 *~ 1;
#X obj 298 595 *~ 1;
#X obj 351 692 *~ 1;
#X obj 390 692 *~ 1;
#X obj 351 730 dac~;
#X obj 544 486 bng 15 250 50 0 empty empty empty 17 7 0 10 #fcfcfc
#000000 #000000;
#X msg 544 518 0 50;
#X obj 657 566 line;
#X msg 657 533 1 50;
#X floatatom 658 623 5 0 180 0 - - - 0;
#X floatatom 350 562 5 0 100 0 - - - 0;
#X msg 273 424 0;
#X obj 768 587 hsl 128 15 0 127 0 0 empty empty empty -2 -8 0 10 #9c00ff
#000000 #000000 0 1;
#X obj 545 598 *~;
#X obj 348 532 delwrite~ glitch 200;
#X obj 657 501 del 200;
#X obj 351 600 delread~ glitch 10;
#X obj 352 641 *~ 0.3;
#X msg 349 403 open amostra11-synth.wav \, 1;
#X obj 766 478 osc/unpackOSC;
#X floatatom 765 535 5 0 180 0 - - - 0;
#X obj 766 450 mrpeach/net/udpreceive 255.255.255.255 9999;
#X obj 766 509 osc/routeOSC /gyz;
#X msg 438 436 stop;
#X obj 695 314 writesf~ 1 2;
#X msg 764 379 start;
#X msg 813 380 stop;
#X msg 636 378 open delay.wav;
#X msg 915 662 start;
#X msg 988 669 stop;
#X obj 853 708 writesf~ 1 2;
#X msg 785 663 open glitch.wav;
#X msg 35 651 start;
#X msg 33 689 stop;
#X obj 34 549 writesf~ 1 2;
#X msg 34 600 open reverb.wav;
#X connect 0 0 2 0;
#X connect 0 0 1 0;
#X connect 2 0 3 0;
#X connect 2 0 3 1;
#X connect 2 0 64 0;
#X connect 4 0 1 0;
#X connect 5 0 8 0;
#X connect 5 0 6 0;
#X connect 8 0 2 0;
#X connect 8 0 4 0;
#X connect 9 0 12 0;
#X connect 10 0 9 0;
#X connect 11 0 0 0;
#X connect 12 0 5 0;
#X connect 13 0 0 0;
#X connect 14 0 16 0;
#X connect 16 0 15 0;
#X connect 17 0 14 0;
#X connect 18 0 11 0;
#X connect 19 0 20 0;
#X connect 20 0 22 0;
#X connect 20 0 26 0;
#X connect 22 0 27 0;
#X connect 22 1 28 0;
#X connect 23 0 26 1;
#X connect 24 0 22 2;
#X connect 25 0 24 0;
#X connect 26 0 21 0;
#X connect 26 0 21 1;
#X connect 27 0 21 0;
#X connect 28 0 21 1;
#X connect 28 0 74 0;
#X connect 29 0 38 0;
#X connect 30 0 25 0;
#X connect 31 0 29 0;
#X connect 32 0 34 0;
#X connect 33 0 36 0;
#X connect 34 0 33 0;
#X connect 35 0 32 0;
#X connect 36 0 19 0;
#X connect 37 0 36 0;
#X connect 38 0 30 0;
#X connect 39 0 40 0;
#X connect 40 0 41 0;
#X connect 40 0 54 0;
#X connect 42 0 44 0;
#X connect 42 0 70 0;
#X connect 43 0 44 0;
#X connect 45 0 46 0;
#X connect 45 0 55 0;
#X connect 46 0 47 0;
#X connect 47 0 49 0;
#X connect 48 0 47 0;
#X connect 49 0 53 1;
#X connect 50 0 56 0;
#X connect 51 0 39 0;
#X connect 52 0 49 0;
#X connect 53 0 54 0;
#X connect 55 0 48 0;
#X connect 56 0 53 0;
#X connect 56 0 57 0;
#X connect 57 0 43 0;
#X connect 57 0 42 0;
#X connect 58 0 39 0;
#X connect 59 0 62 0;
#X connect 60 0 52 0;
#X connect 61 0 59 0;
#X connect 62 0 60 0;
#X connect 63 0 58 0;
#X connect 65 0 64 0;
#X connect 66 0 64 0;
#X connect 67 0 64 0;
#X connect 68 0 70 0;
#X connect 69 0 70 0;
#X connect 71 0 70 0;
#X connect 72 0 74 0;
#X connect 73 0 74 0;
#X connect 75 0 74 0;
